<?xml version="1.0" encoding="UTF-8" standalone="no"?>
<!-- Created with Inkscape (http://www.inkscape.org/) -->

<svg
   width="600"
   height="600"
   viewBox="0 0 562.5 562.49999"
   id="svg2"
   version="1.1"
   inkscape:version="1.1 (c68e22c387, 2021-05-23)"
   sodipodi:docname="epoque-20s.svg"
   xmlns:inkscape="http://www.inkscape.org/namespaces/inkscape"
   xmlns:sodipodi="http://sodipodi.sourceforge.net/DTD/sodipodi-0.dtd"
   xmlns="http://www.w3.org/2000/svg"
   xmlns:svg="http://www.w3.org/2000/svg"
   xmlns:rdf="http://www.w3.org/1999/02/22-rdf-syntax-ns#"
   xmlns:cc="http://creativecommons.org/ns#"
   xmlns:dc="http://purl.org/dc/elements/1.1/">
  <defs
     id="defs4" />
  <sodipodi:namedview
     id="base"
     pagecolor="#ffffff"
     bordercolor="#666666"
     borderopacity="1.0"
     inkscape:pageopacity="1"
     inkscape:pageshadow="2"
     inkscape:zoom="0.98994949"
     inkscape:cx="99.500026"
     inkscape:cy="232.84016"
     inkscape:document-units="px"
     inkscape:current-layer="layer3"
     showgrid="false"
     inkscape:window-width="1920"
     inkscape:window-height="1027"
     inkscape:window-x="-8"
     inkscape:window-y="22"
     inkscape:window-maximized="1"
     fit-margin-top="0"
     fit-margin-left="0"
     fit-margin-right="0"
     fit-margin-bottom="0"
     inkscape:pagecheckerboard="true"
     units="px" />
  <metadata
     id="metadata7">
    <rdf:RDF>
      <cc:Work
         rdf:about="">
        <dc:format>image/svg+xml</dc:format>
        <dc:type
           rdf:resource="http://purl.org/dc/dcmitype/StillImage" />
      </cc:Work>
    </rdf:RDF>
  </metadata>
  <g
     inkscape:groupmode="layer"
     id="layer3"
     inkscape:label="Layer 2"
     style="display:inline">
    <rect
       style="fill:#ffffff;stroke-width:0.9375"
       id="rect549"
       width="559.68762"
       height="561.58167"
       x="1.8940358"
       y="-9.4138505e-07" />
  </g>
  <g
     inkscape:label="Layer 1"
     inkscape:groupmode="layer"
     id="layer1"
     transform="translate(83.338909,-106.7616)"
     style="display:inline">
    <path
       style="opacity:1;fill:#000000;fill-opacity:1;fill-rule:nonzero;stroke:none;stroke-width:0.284206;stroke-linecap:round;stroke-linejoin:round;stroke-miterlimit:4;stroke-dasharray:none;stroke-dashoffset:0;stroke-opacity:1"
       d="m 183.92037,160.33302 v 26.03377 H -43.695882 c -26.239361,101.61611 -14.400458,193.74364 85.038376,249.11718 30.705578,17.09864 62.782056,29.07479 69.809976,100.56598 h 185.30815 c 22.04895,-79.17788 65.1541,-107.54698 121.00185,-105.16149 3.02569,-10.90783 5.35894,-20.83908 6.8812,-29.87527 l 40.07983,22.72912 c 2.66515,-19.55246 2.82475,-39.11622 -1.26956,-58.70426 0,0 -26.22786,19.11158 -37.53088,26.80757 4.90929,-44.74954 -15.23312,-63.93146 -83.89306,-63.56437 -3.11768,9.40771 -5.98221,15.16414 -8.88375,21.44206 -5.5196,-14.72528 -13.98927,-17.58296 -22.84572,-18.88759 l -0.67732,-43.78451 c 26.98729,4.72367 52.06641,10.41944 62.86991,23.36487 l 3.38332,-56.66706 c -16.40293,8.95088 -27.7276,18.73155 -66.3972,24.05174 l -1.14522,-74.07821 h 21.00352 V 183.8123 H 309.57516 C 297.92709,162.30352 229.92447,166.29664 183.92037,160.33302 Z m 15.23158,43.38953 h 96.60518 l 0.97836,75.54699 c -0.30038,0.0303 -0.56392,0.0667 -0.86711,0.095 a 13.115465,15.825108 0 0 0 -12.94439,-13.36042 13.115465,15.825108 0 0 0 -13.11778,15.82393 13.115465,15.825108 0 0 0 13.11778,15.82393 13.115465,15.825108 0 0 0 12.88223,-12.9062 c 0.33566,0.0565 0.66884,0.11318 1.00453,0.1698 l 1.12559,86.81078 -52.35995,-41.45906 12.21469,-22.21205 a 3.350954,4.0432577 0 0 0 -2.86307,-6.32484 3.350954,4.0432577 0 0 0 -2.72238,1.85567 l -30.03776,54.622 a 3.3509854,4.0432957 0 1 0 5.58544,4.46916 l 13.19306,-23.98868 57.14703,45.25308 0.48429,37.25044 c -8.65433,19.81928 -17.01348,39.56741 -33.42441,61.25874 2.9172,-57.15767 -9.00741,-96.93854 -60.07878,-90.86961 L 199.15195,203.72274 Z M -21.570064,441.9115 c -16.993003,0.28079 -34.657802,4.10208 -52.674075,10.19385 a 5.0264307,6.0648862 0 1 0 2.712658,11.6786 c 34.847946,-11.7833 66.9039812,-14.28462 94.586128,0.30401 27.682319,14.58865 51.789179,46.46169 70.274718,106.24336 a 5.0264307,6.0648862 0 0 0 4.70861,3.944 H 306.19183 a 5.0264307,6.0648862 0 0 0 4.45986,-3.26883 c 14.004,-32.54093 27.22634,-64.49463 50.14476,-84.77358 22.91842,-20.27917 55.96063,-29.94461 111.93489,-16.21892 a 5.0264307,6.0648862 0 1 0 1.99925,-11.88377 c -57.66322,-14.13988 -94.41989,-4.20154 -119.87625,18.32322 -24.60368,21.77016 -38.23154,54.29693 -51.70229,85.69333 H 101.40167 C 82.448222,502.98122 57.057064,468.77222 27.079423,452.97397 11.745636,444.8931 -4.5770653,441.63073 -21.570064,441.9115 Z m 21.46171663,40.02586 A 58.384974,70.447248 0 0 0 -58.495566,552.38711 58.384974,70.447248 0 0 0 -0.10834737,622.83304 58.384974,70.447248 0 0 0 58.275524,552.38711 58.384974,70.447248 0 0 0 -0.10834737,481.93736 Z m 400.22220737,0 a 58.384974,70.447248 0 0 0 -58.38386,70.44975 58.384974,70.447248 0 0 0 58.38386,70.44593 58.384974,70.447248 0 0 0 58.38715,-70.44593 58.384974,70.447248 0 0 0 -58.38715,-70.44975 z M -0.10834737,496.2333 A 46.538746,56.153603 0 0 1 28.541964,508.21975 l -22.0800784,30.4912 a 13.115463,15.825105 0 0 0 -4.9244071,-2.0095 l -2.2578226,-40.44046 a 46.538746,56.153603 0 0 1 0.61199673,-0.0283 z m 400.22220737,0 a 46.538746,56.153603 0 0 1 28.65043,11.98645 l -22.07683,30.48715 a 13.115463,15.825105 0 0 0 -4.92446,-2.00545 l -2.25774,-40.44046 a 46.538746,56.153603 0 0 1 0.6086,-0.0283 z m -405.8470541,0.4817 2.2544616,40.38507 a 13.115463,15.825105 0 0 0 -4.665911,2.78737 L -33.40847,513.24179 A 46.538746,56.153603 0 0 1 -5.7331941,496.715 Z m 400.2255841,0 2.25449,40.38124 a 13.115463,15.825105 0 0 0 -4.66596,2.7912 L 366.81383,513.24179 A 46.538746,56.153603 0 0 1 394.49239,496.715 Z M 32.334367,512.20742 a 46.538746,56.153603 0 0 1 13.696988,33.39296 l -33.470169,2.72023 a 13.115463,15.825105 0 0 0 -2.310083,-5.63007 z m 400.222233,0 a 46.538746,56.153603 0 0 1 13.69697,33.39296 l -33.46689,2.72023 a 13.115463,15.825105 0 0 0 -2.31337,-5.62603 z m -469.269798,5.60623 25.270209,26.64179 a 13.115463,15.825105 0 0 0 -1.665429,5.94179 l -33.516073,2.72427 a 46.538746,56.153603 0 0 1 -0.02347,-0.73439 46.538746,56.153603 0 0 1 9.934087,-34.57346 z m 400.225478,0 25.26704,26.63775 a 13.115463,15.825105 0 0 0 -1.66221,5.94179 l -33.51598,2.72427 a 46.538746,56.153603 0 0 1 -0.0229,-0.73438 46.538746,56.153603 0 0 1 9.93407,-34.56943 z M 46.407632,551.64484 a 46.538746,56.153603 0 0 1 0.02347,0.73824 46.538746,56.153603 0 0 1 -9.934084,34.57347 l -25.27036,-26.64564 a 13.115463,15.825105 0 0 0 1.66224,-5.94199 l 33.519257,-2.72408 z m 400.222238,0 a 46.538746,56.153603 0 0 1 0.0229,0.73824 46.538746,56.153603 0 0 1 -9.93407,34.56963 l -25.26702,-26.6418 a 13.115463,15.825105 0 0 0 1.66224,-5.94199 l 33.51601,-2.72408 z m -459.407752,4.80474 a 13.115463,15.825105 0 0 0 2.310099,5.62603 l -22.083442,30.48736 a 46.538746,56.153603 0 0 1 -13.696824,-33.39699 z m 400.225502,0 a 13.115463,15.825105 0 0 0 2.31011,5.6222 L 367.6744,592.56682 A 46.538746,56.153603 0 0 1 353.97739,559.16598 Z M 7.9212397,564.87893 33.194966,591.52861 A 46.538746,56.153603 0 0 1 5.5163393,608.05519 L 3.2618771,567.67012 a 13.115463,15.825105 0 0 0 4.6593626,-2.79119 z m 400.2255803,0 25.27036,26.64564 a 46.538746,56.153603 0 0 1 -27.6786,16.53062 l -2.25121,-40.38507 a 13.115463,15.825105 0 0 0 4.65945,-2.79119 z m -414.8255614,1.18031 a 13.115463,15.825105 0 0 0 4.9244085,2.00566 l 2.25780927,40.44431 a 46.538746,56.153603 0 0 1 -0.61182374,0.0283 46.538746,56.153603 0 0 1 -28.65381663,-11.98645 l 22.0834226,-30.49117 z m 400.2222614,0 a 13.115463,15.825105 0 0 0 4.92447,2.00566 l 2.25773,40.44431 a 46.538746,56.153603 0 0 1 -0.61186,0.0283 46.538746,56.153603 0 0 1 -28.65041,-11.98645 l 22.08007,-30.49119 z"
       id="path4249"
       inkscape:connector-curvature="0" />
  </g>
</svg>
